<svg width="24" height="24" viewBox="0 0 24 24" fill="none" xmlns="http://www.w3.org/2000/svg">
<path d="M10.1379 0C4.54786 0 0 4.54786 0 10.1379C0 15.728 4.54786 20.2759 10.1379 20.2759C15.728 20.2759 20.2759 15.728 20.2759 10.1379C20.2759 4.54786 15.728 0 10.1379 0ZM10.1379 18.5025C5.52563 18.5025 1.77342 14.7503 1.77342 10.1379C1.77342 5.52563 5.52563 1.77342 10.1379 1.77342C14.75 1.77342 18.5025 5.52563 18.5025 10.1379C18.5025 14.7503 14.7503 18.5025 10.1379 18.5025Z" fill="white"/>
<path d="M23.7402 22.4864L17.2968 16.043C16.9504 15.6966 16.3894 15.6966 16.043 16.043C15.6966 16.3891 15.6966 16.9507 16.043 17.2968L22.4864 23.7402C22.6596 23.9134 22.8863 24 23.1133 24C23.3403 24 23.567 23.9134 23.7402 23.7402C24.0866 23.394 24.0866 22.8325 23.7402 22.4864Z" fill="white"/>
<path d="M11.3387 9.60849H15V11.0943H11.3387V15H9.66133V11.0943H6V9.60849H9.66133V6H11.3387V9.60849Z" fill="white"/>
</svg>
