<svg width="7" height="7" viewBox="0 0 7 7" fill="none" xmlns="http://www.w3.org/2000/svg">
<path d="M6.888 1.48633L6.65871 1.25704C6.58666 1.18493 6.49059 1.14526 6.38804 1.14526C6.28549 1.14526 6.18937 1.18493 6.11732 1.25704L2.89544 4.47886L0.882455 2.46582C0.810406 2.39382 0.714284 2.3541 0.611732 2.3541C0.509236 2.3541 0.413171 2.39382 0.341065 2.46582L0.111715 2.69505C0.0396098 2.76727 0 2.86345 0 2.96589C0 3.06839 0.0396098 3.16451 0.111715 3.23661L2.3845 5.50928C2.38751 5.51355 2.3907 5.51753 2.3944 5.52117L2.62375 5.74671C2.6958 5.81853 2.79192 5.85444 2.89527 5.85444H2.89646C2.99907 5.85444 3.0952 5.81853 3.16713 5.74671L3.39654 5.51918C3.40024 5.51554 3.40337 5.51252 3.40524 5.50945L6.88794 2.02709C7.03733 1.87804 7.03733 1.63555 6.888 1.48633Z" fill="black"/>
</svg>
