<svg width="80" height="80" viewBox="0 0 80 80" fill="none" xmlns="http://www.w3.org/2000/svg">
<g clip-path="url(#clip0)">
<path d="M41.0091 0.0166741C24.7627 -0.530837 11.4209 12.4759 11.4209 28.5986C11.4209 46.8961 28.9802 60.1751 38.8222 79.2721C39.3218 80.2418 40.7176 80.243 41.2191 79.2735C50.1225 62.0901 65.3398 50.5676 68.1599 34.0133C71.0798 16.8828 58.3765 0.602192 41.0091 0.0166741ZM40.0192 43.5786C31.7461 43.5786 25.0392 36.8716 25.0392 28.5986C25.0392 20.3257 31.7463 13.6186 40.0192 13.6186C48.2923 13.6186 54.9994 20.3257 54.9994 28.5986C54.9994 36.8716 48.2923 43.5786 40.0192 43.5786Z" fill="black"/>
</g>
<defs>
<clipPath id="clip0">
<path d="M0 0H80V80H0V0Z" fill="white"/>
</clipPath>
</defs>
</svg>
