<svg width="14" height="14" viewBox="0 0 14 14" fill="none" xmlns="http://www.w3.org/2000/svg">
<path d="M13.1765 1.56H10.7059V0.4C10.7059 0.16 10.5412 0 10.2941 0H9.47059C9.22353 0 9.05882 0.16 9.05882 0.4V1.56H4.94118V0.4C4.94118 0.16 4.77647 0 4.52941 0H3.70588C3.45882 0 3.29412 0.16 3.29412 0.4V1.56H0.823529C0.370588 1.56 0 1.92 0 2.36V13.2C0 13.64 0.370588 14 0.823529 14H13.1765C13.6294 14 14 13.64 14 13.2V2.36C14 1.92 13.6294 1.56 13.1765 1.56ZM12.3529 12C12.3529 12.24 12.1882 12.4 11.9412 12.4H2.05882C1.81176 12.4 1.64706 12.24 1.64706 12V3.56C1.64706 3.32 1.81176 3.16 2.05882 3.16H3.29412V4C3.29412 4.24 3.45882 4.4 3.70588 4.4H4.52941C4.77647 4.4 4.94118 4.24 4.94118 4V3.16H9.05882V4C9.05882 4.24 9.22353 4.4 9.47059 4.4H10.2941C10.5412 4.4 10.7059 4.24 10.7059 4V3.16H11.9412C12.1882 3.16 12.3529 3.32 12.3529 3.56V12ZM4.94118 6H4.11765C3.87059 6 3.70588 6.16 3.70588 6.4V7.2C3.70588 7.44 3.87059 7.6 4.11765 7.6H4.94118C5.18824 7.6 5.35294 7.44 5.35294 7.2V6.4C5.35294 6.16 5.18824 6 4.94118 6ZM7.41176 6H6.58824C6.34118 6 6.17647 6.16 6.17647 6.4V7.2C6.17647 7.44 6.34118 7.6 6.58824 7.6H7.41176C7.65882 7.6 7.82353 7.44 7.82353 7.2V6.4C7.82353 6.16 7.65882 6 7.41176 6ZM9.88235 6H9.05882C8.81176 6 8.64706 6.16 8.64706 6.4V7.2C8.64706 7.44 8.81176 7.6 9.05882 7.6H9.88235C10.1294 7.6 10.2941 7.44 10.2941 7.2V6.4C10.2941 6.16 10.1294 6 9.88235 6ZM4.94118 8.4H4.11765C3.87059 8.4 3.70588 8.56 3.70588 8.8V9.6C3.70588 9.84 3.87059 10 4.11765 10H4.94118C5.18824 10 5.35294 9.84 5.35294 9.6V8.8C5.35294 8.56 5.18824 8.4 4.94118 8.4ZM7.41176 8.4H6.58824C6.34118 8.4 6.17647 8.56 6.17647 8.8V9.6C6.17647 9.84 6.34118 10 6.58824 10H7.41176C7.65882 10 7.82353 9.84 7.82353 9.6V8.8C7.82353 8.56 7.65882 8.4 7.41176 8.4ZM9.88235 8.4H9.05882C8.81176 8.4 8.64706 8.56 8.64706 8.8V9.6C8.64706 9.84 8.81176 10 9.05882 10H9.88235C10.1294 10 10.2941 9.84 10.2941 9.6V8.8C10.2941 8.56 10.1294 8.4 9.88235 8.4Z" fill="#1D1D1B"/>
</svg>
